<?xml version="1.0" encoding="iso-8859-1"?>
<!-- Generator: Adobe Illustrator 19.0.0, SVG Export Plug-In . SVG Version: 6.00 Build 0)  -->
<svg version="1.1" id="Capa_1" xmlns="http://www.w3.org/2000/svg" xmlns:xlink="http://www.w3.org/1999/xlink" x="0px" y="0px"
	 viewBox="0 0 511.999 511.999" style="enable-background:new 0 0 511.999 511.999;" xml:space="preserve">
<path style="fill:#F0F0F0;" d="M127.664,267.366c-41.118-45.59-79.716-93.712-111.557-145.723
	C4.594,102.836-3.207,83.85,1.293,61.422c4.01-19.99,16.799-37.517,34.625-47.416C54.543,3.663,77.287,2.457,96.928,10.688
	c24.503,10.269,36.917,34.243,47.884,56.923c23.576,48.75,42.416,99.909,58.887,151.598L127.664,267.366z"/>
<path style="fill:#FABED5;" d="M144.217,245.316c-37.587-43.217-67.623-83.411-91.452-122.335
	c-10.148-16.577-13.226-27.403-10.978-38.613c2.274-11.333,9.655-21.445,19.745-27.048c5.83-3.237,12.523-4.948,19.357-4.948
	c5.381,0,10.575,1.033,15.441,3.073c13.931,5.839,22.582,21.899,32.442,42.287c17.876,36.964,33.994,77.316,50.127,125.618
	L144.217,245.316z"/>
<path style="fill:#F0F0F0;" d="M384.336,267.366c41.118-45.59,79.716-93.712,111.557-145.723
	c11.513-18.806,19.313-37.792,14.813-60.22c-4.01-19.99-16.799-37.517-34.625-47.416c-18.625-10.342-41.369-11.549-61.009-3.318
	c-24.503,10.269-36.917,34.243-47.884,56.923c-23.576,48.75-42.416,99.909-58.887,151.598L384.336,267.366z"/>
<path style="fill:#FABED5;" d="M367.783,245.316c37.587-43.217,67.623-83.411,91.452-122.335
	c10.148-16.577,13.227-27.403,10.978-38.613c-2.274-11.334-9.655-21.445-19.747-27.049c-5.83-3.237-12.523-4.948-19.357-4.948
	c-5.381,0-10.575,1.033-15.441,3.073c-13.931,5.839-22.582,21.899-32.442,42.287c-17.876,36.964-33.994,77.316-50.127,125.618
	L367.783,245.316z"/>
<g>
	<path style="fill:#D9D9D9;" d="M410.732,199.849c-23.199-20.278-50.588-35.461-80.397-44.92
		c-7.869,21.244-15.162,42.714-22.034,64.28l76.036,48.157c14.92-16.543,29.501-33.424,43.555-50.699
		C422.57,210.821,416.856,205.2,410.732,199.849z"/>
	<path style="fill:#D9D9D9;" d="M84.108,216.666c14.055,17.275,28.635,34.157,43.555,50.699l76.036-48.157
		c-6.872-21.566-14.165-43.036-22.034-64.28c-29.809,9.458-57.199,24.641-80.397,44.92C95.145,205.2,89.43,210.821,84.108,216.666z"
		/>
</g>
<g>
	<path style="fill:#E6A8BF;" d="M354.444,164.061c-7.211,18.493-14.276,38.127-21.343,59.288l34.683,21.967
		c14.326-16.473,27.548-32.502,39.754-48.193C391.545,183.681,373.666,172.591,354.444,164.061z"/>
	<path style="fill:#E6A8BF;" d="M144.217,245.316l34.683-21.967c-7.068-21.161-14.133-40.795-21.343-59.288
		c-19.222,8.53-37.101,19.62-53.093,33.062C116.669,212.813,129.89,228.843,144.217,245.316z"/>
</g>
<ellipse style="fill:#F0F0F0;" cx="256" cy="340.588" rx="190.058" ry="166.127"/>
<path style="fill:#D9D9D9;" d="M107.148,340.59c0-85.666,74.181-156.178,169.456-165.157c-6.769-0.638-13.641-0.975-20.604-0.975
	c-104.967,0-190.059,74.379-190.059,166.131c0,91.751,85.093,166.131,190.059,166.131c6.963,0,13.834-0.337,20.604-0.975
	C181.329,496.767,107.148,426.256,107.148,340.59z"/>
<g>
	<path style="fill:#3B484A;" d="M177.379,333.195c-4.267,0-7.726,3.458-7.726,7.726v14.23c0,4.267,3.459,7.726,7.726,7.726
		s7.726-3.459,7.726-7.726v-14.23C185.105,336.655,181.646,333.195,177.379,333.195z"/>
	<path style="fill:#3B484A;" d="M334.622,333.195c-4.267,0-7.726,3.458-7.726,7.726v14.23c0,4.267,3.459,7.726,7.726,7.726
		c4.267,0,7.726-3.459,7.726-7.726v-14.23C342.349,336.655,338.889,333.195,334.622,333.195z"/>
	<path style="fill:#3B484A;" d="M287.706,355.237c-3.212-2.808-8.093-2.481-10.902,0.732c-1.804,2.063-4.535,3.247-7.493,3.247
		c-2.958,0-5.689-1.184-7.492-3.247c-0.025-0.029-0.054-0.054-0.079-0.081c-2.178-2.403-5.821-3.144-8.795-1.892
		c-1.049,0.441-2.011,1.117-2.761,1.975c-1.804,2.063-4.535,3.247-7.492,3.247c-2.958,0-5.689-1.184-7.493-3.247
		c-2.808-3.213-7.689-3.542-10.902-0.732c-3.213,2.808-3.541,7.689-0.732,10.902c4.739,5.421,11.711,8.53,19.127,8.53
		c4.783,0,9.377-1.3,13.31-3.672c3.933,2.373,8.527,3.672,13.31,3.672c7.417,0,14.389-3.11,19.127-8.53
		C291.247,362.925,290.918,358.045,287.706,355.237z"/>
</g>
<g>
	<path style="fill:#FABED5;" d="M172.25,392.413H153.45c-4.267,0-7.726-3.459-7.726-7.726c0-4.267,3.459-7.726,7.726-7.726h18.801
		c4.267,0,7.726,3.459,7.726,7.726C179.977,388.954,176.517,392.413,172.25,392.413z"/>
	<path style="fill:#FABED5;" d="M358.55,392.413H339.75c-4.267,0-7.726-3.459-7.726-7.726c0-4.267,3.459-7.726,7.726-7.726h18.801
		c4.267,0,7.726,3.459,7.726,7.726C366.277,388.954,362.817,392.413,358.55,392.413z"/>
</g>
<g>
</g>
<g>
</g>
<g>
</g>
<g>
</g>
<g>
</g>
<g>
</g>
<g>
</g>
<g>
</g>
<g>
</g>
<g>
</g>
<g>
</g>
<g>
</g>
<g>
</g>
<g>
</g>
<g>
</g>
</svg>
